<?xml version="1.0" encoding="UTF-8"?>
<svg width="952px" height="202px" viewBox="0 0 952 202" version="1.1" xmlns="http://www.w3.org/2000/svg" xmlns:xlink="http://www.w3.org/1999/xlink">
    <!-- Generator: Sketch 55.2 (78181) - https://sketchapp.com -->
    <title>MNE Banner no margin</title>
    <desc>Created with Sketch.</desc>
    <g id="MNE-Banner-no-margin" stroke="none" stroke-width="1" fill="none" fill-rule="evenodd">
        <path d="M318.587055,173.170096 C319.698139,173.170096 320.596797,173.592131 321.283055,174.436214 C321.969313,175.280297 322.312436,176.416545 322.312436,177.844993 C322.312436,179.857806 321.103333,181.545947 318.685091,182.909465 C316.462922,184.143125 313.946681,185.133284 311.136291,185.879973 C308.325901,186.626661 305.646267,187 303.097309,187 C295.385077,187 289.274204,184.792432 284.764509,180.377229 C280.254814,175.962026 278,169.923678 278,162.262003 C278,157.392294 278.980354,153.07455 280.941091,149.308642 C282.901828,145.542734 285.663158,142.620952 289.225164,140.54321 C292.787169,138.465467 296.822959,137.426612 301.332655,137.426612 C305.646276,137.426612 309.404299,138.368075 312.606836,140.251029 C315.809374,142.133983 318.292937,144.79605 320.0576,148.237311 C321.822263,151.678572 322.704582,155.736602 322.704582,160.411523 C322.704582,163.203489 321.4628,164.599451 318.9792,164.599451 L290.058473,164.599451 C290.45062,169.079583 291.72508,172.374704 293.881891,174.484911 C296.038702,176.595118 299.175834,177.650206 303.293382,177.650206 C305.384835,177.650206 307.231168,177.390492 308.832436,176.871056 C310.433705,176.351621 312.24736,175.637407 314.273455,174.728395 C316.234192,173.689524 317.672044,173.170096 318.587055,173.170096 Z M301.626764,145.997257 C298.293511,145.997257 295.630216,147.036112 293.6368,149.113855 C291.643384,151.191597 290.45062,154.178307 290.058473,158.074074 L312.214691,158.074074 C312.083975,154.113378 311.103621,151.110435 309.2736,149.065158 C307.443579,147.01988 304.894659,145.997257 301.626764,145.997257 Z M360.546618,137.426612 C366.298114,137.426612 370.578992,139.049824 373.389382,142.296296 C376.199772,145.542769 377.604945,150.444869 377.604945,157.002743 L377.604945,180.961591 C377.604945,182.779616 377.065751,184.208042 375.987345,185.246914 C374.90894,186.285785 373.42207,186.805213 371.526691,186.805213 C369.631312,186.805213 368.128103,186.285785 367.017018,185.246914 C365.905934,184.208042 365.3504,182.779616 365.3504,180.961591 L365.3504,157.684499 C365.3504,153.983521 364.647813,151.288989 363.242618,149.600823 C361.837423,147.912657 359.631627,147.068587 356.625164,147.068587 C353.095837,147.068587 350.26915,148.172371 348.145018,150.379973 C346.020886,152.587574 344.958836,155.54182 344.958836,159.242798 L344.958836,180.961591 C344.958836,182.779616 344.403303,184.208042 343.292218,185.246914 C342.181134,186.285785 340.677925,186.805213 338.782545,186.805213 C336.887166,186.805213 335.400296,186.285785 334.321891,185.246914 C333.243486,184.208042 332.704291,182.779616 332.704291,180.961591 L332.704291,143.270233 C332.704291,141.582067 333.259825,140.218569 334.370909,139.179698 C335.481993,138.140827 336.985203,137.621399 338.880582,137.621399 C340.579887,137.621399 341.968722,138.124595 343.047127,139.131001 C344.125533,140.137408 344.664727,141.45221 344.664727,143.075446 L344.664727,145.705075 C346.298675,143.042968 348.488132,140.997721 351.233164,139.569273 C353.978196,138.140825 357.082649,137.426612 360.546618,137.426612 Z M423.485964,141.127572 C424.008827,139.958842 424.711414,139.082307 425.593745,138.497942 C426.476077,137.913577 427.440092,137.621399 428.485818,137.621399 C429.98905,137.621399 431.345206,138.124595 432.554327,139.131001 C433.763448,140.137408 434.368,141.387281 434.368,142.880658 C434.368,143.659812 434.171929,144.438954 433.779782,145.218107 L415.643055,182.909465 C415.054833,184.143125 414.221533,185.084588 413.143127,185.733882 C412.064722,186.383177 410.871958,186.707819 409.5648,186.707819 C408.323,186.707819 407.130236,186.383177 405.986473,185.733882 C404.842709,185.084588 403.97673,184.143125 403.388509,182.909465 L385.153745,145.218107 C384.826956,144.568812 384.663564,143.822135 384.663564,142.978052 C384.663564,141.484675 385.300794,140.218569 386.575273,139.179698 C387.849752,138.140827 389.303943,137.621399 390.937891,137.621399 C393.290775,137.621399 395.022734,138.757648 396.133818,141.030178 L409.858909,171.124829 L423.485964,141.127572 Z M447.700945,186.805213 C445.936282,186.805213 444.482091,186.302017 443.338327,185.29561 C442.194564,184.289204 441.622691,182.844545 441.622691,180.961591 L441.622691,143.367627 C441.622691,141.484673 442.194564,140.056246 443.338327,139.082305 C444.482091,138.108363 445.936282,137.621399 447.700945,137.621399 C449.465609,137.621399 450.93614,138.108363 452.112582,139.082305 C453.289024,140.056246 453.877236,141.484673 453.877236,143.367627 L453.877236,180.961591 C453.877236,182.844545 453.289024,184.289204 452.112582,185.29561 C450.93614,186.302017 449.465609,186.805213 447.700945,186.805213 Z M447.700945,128.953361 C445.478777,128.953361 443.71414,128.352772 442.406982,127.151578 C441.099824,125.950383 440.446255,124.375867 440.446255,122.427984 C440.446255,120.4801 441.099824,118.921817 442.406982,117.753086 C443.71414,116.584356 445.478777,116 447.700945,116 C449.857756,116 451.606054,116.584356 452.945891,117.753086 C454.285728,118.921817 454.955636,120.4801 454.955636,122.427984 C454.955636,124.375867 454.302067,125.950383 452.994909,127.151578 C451.687751,128.352772 449.923114,128.953361 447.700945,128.953361 Z M493.287855,137.621399 C494.98716,137.49154 496.326977,137.848647 497.307345,138.69273 C498.287714,139.536813 498.777891,140.802918 498.777891,142.491084 C498.777891,144.244179 498.353071,145.542748 497.503418,146.386831 C496.653765,147.230914 495.117878,147.782806 492.895709,148.042524 L489.954618,148.334705 C486.098502,148.724282 483.271815,150.022851 481.474473,152.230453 C479.67713,154.438054 478.778473,157.197514 478.778473,160.508916 L478.778473,180.961591 C478.778473,182.844545 478.19026,184.289204 477.013818,185.29561 C475.837376,186.302017 474.366845,186.805213 472.602182,186.805213 C470.837518,186.805213 469.383327,186.302017 468.239564,185.29561 C467.0958,184.289204 466.523927,182.844545 466.523927,180.961591 L466.523927,143.270233 C466.523927,141.452209 467.0958,140.056246 468.239564,139.082305 C469.383327,138.108363 470.80484,137.621399 472.504145,137.621399 C474.203451,137.621399 475.575946,138.092131 476.621673,139.033608 C477.667399,139.975085 478.190255,141.322351 478.190255,143.075446 L478.190255,146.971193 C479.432055,144.114298 481.278388,141.906729 483.729309,140.348422 C486.18023,138.790116 488.908882,137.913581 491.915345,137.718793 L493.287855,137.621399 Z M525.933964,187 C521.032121,187 516.734903,185.993609 513.042182,183.980796 C509.34946,181.967983 506.490095,179.078665 504.464,175.312757 C502.437905,171.546849 501.424873,167.164177 501.424873,162.164609 C501.424873,157.165041 502.437905,152.798601 504.464,149.065158 C506.490095,145.331714 509.34946,142.458629 513.042182,140.445816 C516.734903,138.433003 521.032121,137.426612 525.933964,137.426612 C530.835806,137.426612 535.133024,138.433003 538.825745,140.445816 C542.518467,142.458629 545.361493,145.331714 547.354909,149.065158 C549.348325,152.798601 550.345018,157.165041 550.345018,162.164609 C550.345018,167.164177 549.348325,171.546849 547.354909,175.312757 C545.361493,179.078665 542.518467,181.967983 538.825745,183.980796 C535.133024,185.993609 530.835806,187 525.933964,187 Z M525.835927,177.552812 C529.822759,177.552812 532.861856,176.254243 534.953309,173.657064 C537.044762,171.059886 538.090473,167.229106 538.090473,162.164609 C538.090473,157.165041 537.044762,153.350493 534.953309,150.72085 C532.861856,148.091208 529.855438,146.776406 525.933964,146.776406 C522.012489,146.776406 518.989732,148.091208 516.8656,150.72085 C514.741468,153.350493 513.679418,157.165041 513.679418,162.164609 C513.679418,167.229106 514.725129,171.059886 516.816582,173.657064 C518.908035,176.254243 521.914453,177.552812 525.835927,177.552812 Z M588.285091,137.426612 C594.036586,137.426612 598.317465,139.049824 601.127855,142.296296 C603.938244,145.542769 605.343418,150.444869 605.343418,157.002743 L605.343418,180.961591 C605.343418,182.779616 604.804224,184.208042 603.725818,185.246914 C602.647413,186.285785 601.160543,186.805213 599.265164,186.805213 C597.369784,186.805213 595.866575,186.285785 594.755491,185.246914 C593.644407,184.208042 593.088873,182.779616 593.088873,180.961591 L593.088873,157.684499 C593.088873,153.983521 592.386286,151.288989 590.981091,149.600823 C589.575896,147.912657 587.3701,147.068587 584.363636,147.068587 C580.83431,147.068587 578.007623,148.172371 575.883491,150.379973 C573.759359,152.587574 572.697309,155.54182 572.697309,159.242798 L572.697309,180.961591 C572.697309,182.779616 572.141775,184.208042 571.030691,185.246914 C569.919607,186.285785 568.416397,186.805213 566.521018,186.805213 C564.625639,186.805213 563.138769,186.285785 562.060364,185.246914 C560.981958,184.208042 560.442764,182.779616 560.442764,180.961591 L560.442764,143.270233 C560.442764,141.582067 560.998297,140.218569 562.109382,139.179698 C563.220466,138.140827 564.723675,137.621399 566.619055,137.621399 C568.31836,137.621399 569.707195,138.124595 570.7856,139.131001 C571.864005,140.137408 572.4032,141.45221 572.4032,143.075446 L572.4032,145.705075 C574.037148,143.042968 576.226604,140.997721 578.971636,139.569273 C581.716668,138.140825 584.821122,137.426612 588.285091,137.426612 Z M645.636364,137.426612 C651.387859,137.426612 655.668737,139.049824 658.479127,142.296296 C661.289517,145.542769 662.694691,150.444869 662.694691,157.002743 L662.694691,180.961591 C662.694691,182.779616 662.155496,184.208042 661.077091,185.246914 C659.998686,186.285785 658.511816,186.805213 656.616436,186.805213 C654.721057,186.805213 653.217848,186.285785 652.106764,185.246914 C650.995679,184.208042 650.440145,182.779616 650.440145,180.961591 L650.440145,157.684499 C650.440145,153.983521 649.737559,151.288989 648.332364,149.600823 C646.927169,147.912657 644.721373,147.068587 641.714909,147.068587 C638.185582,147.068587 635.358895,148.172371 633.234764,150.379973 C631.110632,152.587574 630.048582,155.54182 630.048582,159.242798 L630.048582,180.961591 C630.048582,182.779616 629.493048,184.208042 628.381964,185.246914 C627.270879,186.285785 625.76767,186.805213 623.872291,186.805213 C621.976912,186.805213 620.490042,186.285785 619.411636,185.246914 C618.333231,184.208042 617.794036,182.779616 617.794036,180.961591 L617.794036,143.270233 C617.794036,141.582067 618.34957,140.218569 619.460655,139.179698 C620.571739,138.140827 622.074948,137.621399 623.970327,137.621399 C625.669633,137.621399 627.058467,138.124595 628.136873,139.131001 C629.215278,140.137408 629.754473,141.45221 629.754473,143.075446 L629.754473,145.705075 C631.38842,143.042968 633.577877,140.997721 636.322909,139.569273 C639.067941,138.140825 642.172395,137.426612 645.636364,137.426612 Z M713.085382,173.170096 C714.196466,173.170096 715.095124,173.592131 715.781382,174.436214 C716.46764,175.280297 716.810764,176.416545 716.810764,177.844993 C716.810764,179.857806 715.601661,181.545947 713.183418,182.909465 C710.961249,184.143125 708.445008,185.133284 705.634618,185.879973 C702.824228,186.626661 700.144595,187 697.595636,187 C689.883404,187 683.772532,184.792432 679.262836,180.377229 C674.753141,175.962026 672.498327,169.923678 672.498327,162.262003 C672.498327,157.392294 673.478681,153.07455 675.439418,149.308642 C677.400155,145.542734 680.161485,142.620952 683.723491,140.54321 C687.285497,138.465467 691.321287,137.426612 695.830982,137.426612 C700.144603,137.426612 703.902626,138.368075 707.105164,140.251029 C710.307701,142.133983 712.791264,144.79605 714.555927,148.237311 C716.320591,151.678572 717.202909,155.736602 717.202909,160.411523 C717.202909,163.203489 715.961128,164.599451 713.477527,164.599451 L684.5568,164.599451 C684.948947,169.079583 686.223407,172.374704 688.380218,174.484911 C690.537029,176.595118 693.674161,177.650206 697.791709,177.650206 C699.883162,177.650206 701.729495,177.390492 703.330764,176.871056 C704.932032,176.351621 706.745687,175.637407 708.771782,174.728395 C710.732519,173.689524 712.170371,173.170096 713.085382,173.170096 Z M696.125091,145.997257 C692.791838,145.997257 690.128543,147.036112 688.135127,149.113855 C686.141711,151.191597 684.948947,154.178307 684.5568,158.074074 L706.713018,158.074074 C706.582302,154.113378 705.601949,151.110435 703.771927,149.065158 C701.941906,147.01988 699.392986,145.997257 696.125091,145.997257 Z M784.161745,137.426612 C789.390378,137.426612 793.393489,138.968663 796.1712,142.052812 C798.948911,145.136961 800.337745,150.120222 800.337745,157.002743 L800.337745,180.961591 C800.337745,182.844545 799.765872,184.289204 798.622109,185.29561 C797.478346,186.302017 795.991476,186.805213 794.161455,186.805213 C792.396791,186.805213 790.9426,186.302017 789.798836,185.29561 C788.655073,184.289204 788.0832,182.844545 788.0832,180.961591 L788.0832,157.002743 C788.0832,153.431624 787.44597,150.883181 786.171491,149.357339 C784.897012,147.831497 782.952643,147.068587 780.338327,147.068587 C777.13579,147.068587 774.58687,148.156139 772.691491,150.331276 C770.796112,152.506412 769.848436,155.47689 769.848436,159.242798 L769.848436,180.961591 C769.848436,182.844545 769.276563,184.289204 768.1328,185.29561 C766.989037,186.302017 765.534845,186.805213 763.770182,186.805213 C762.005518,186.805213 760.534988,186.302017 759.358545,185.29561 C758.182103,184.289204 757.593891,182.844545 757.593891,180.961591 L757.593891,157.002743 C757.593891,153.431624 756.956661,150.883181 755.682182,149.357339 C754.407703,147.831497 752.463334,147.068587 749.849018,147.068587 C746.646481,147.068587 744.1139,148.156139 742.2512,150.331276 C740.3885,152.506412 739.457164,155.47689 739.457164,159.242798 L739.457164,180.961591 C739.457164,182.844545 738.868951,184.289204 737.692509,185.29561 C736.516067,186.302017 735.045536,186.805213 733.280873,186.805213 C731.516209,186.805213 730.062018,186.302017 728.918255,185.29561 C727.774491,184.289204 727.202618,182.844545 727.202618,180.961591 L727.202618,143.270233 C727.202618,141.452209 727.79083,140.056246 728.967273,139.082305 C730.143715,138.108363 731.614246,137.621399 733.378909,137.621399 C735.078215,137.621399 736.467049,138.092131 737.545455,139.033608 C738.62386,139.975085 739.163055,141.322351 739.163055,143.075446 L739.163055,145.412894 C740.666286,142.815716 742.676012,140.835398 745.192291,139.471879 C747.70857,138.108361 750.600614,137.426612 753.868509,137.426612 C761.057878,137.426612 765.861612,140.413322 768.279855,146.386831 C769.717728,143.659794 771.841828,141.48469 774.652218,139.861454 C777.462608,138.238218 780.632419,137.426612 784.161745,137.426612 Z M850.728436,173.170096 C851.839521,173.170096 852.738178,173.592131 853.424436,174.436214 C854.110694,175.280297 854.453818,176.416545 854.453818,177.844993 C854.453818,179.857806 853.244715,181.545947 850.826473,182.909465 C848.604304,184.143125 846.088063,185.133284 843.277673,185.879973 C840.467283,186.626661 837.787649,187 835.238691,187 C827.526458,187 821.415586,184.792432 816.905891,180.377229 C812.396196,175.962026 810.141382,169.923678 810.141382,162.262003 C810.141382,157.392294 811.121736,153.07455 813.082473,149.308642 C815.04321,145.542734 817.80454,142.620952 821.366545,140.54321 C824.928551,138.465467 828.964341,137.426612 833.474036,137.426612 C837.787658,137.426612 841.545681,138.368075 844.748218,140.251029 C847.950755,142.133983 850.434318,144.79605 852.198982,148.237311 C853.963645,151.678572 854.845964,155.736602 854.845964,160.411523 C854.845964,163.203489 853.604182,164.599451 851.120582,164.599451 L822.199855,164.599451 C822.592002,169.079583 823.866462,172.374704 826.023273,174.484911 C828.180084,176.595118 831.317216,177.650206 835.434764,177.650206 C837.526217,177.650206 839.37255,177.390492 840.973818,176.871056 C842.575087,176.351621 844.388741,175.637407 846.414836,174.728395 C848.375573,173.689524 849.813426,173.170096 850.728436,173.170096 Z M833.768145,145.997257 C830.434892,145.997257 827.771598,147.036112 825.778182,149.113855 C823.784766,151.191597 822.592002,154.178307 822.199855,158.074074 L844.356073,158.074074 C844.225357,154.113378 843.245003,151.110435 841.414982,149.065158 C839.584961,147.01988 837.036041,145.997257 833.768145,145.997257 Z M892.688,137.426612 C898.439495,137.426612 902.720374,139.049824 905.530764,142.296296 C908.341153,145.542769 909.746327,150.444869 909.746327,157.002743 L909.746327,180.961591 C909.746327,182.779616 909.207133,184.208042 908.128727,185.246914 C907.050322,186.285785 905.563452,186.805213 903.668073,186.805213 C901.772694,186.805213 900.269484,186.285785 899.1584,185.246914 C898.047316,184.208042 897.491782,182.779616 897.491782,180.961591 L897.491782,157.684499 C897.491782,153.983521 896.789195,151.288989 895.384,149.600823 C893.978805,147.912657 891.773009,147.068587 888.766545,147.068587 C885.237219,147.068587 882.410532,148.172371 880.2864,150.379973 C878.162268,152.587574 877.100218,155.54182 877.100218,159.242798 L877.100218,180.961591 C877.100218,182.779616 876.544684,184.208042 875.4336,185.246914 C874.322516,186.285785 872.819306,186.805213 870.923927,186.805213 C869.028548,186.805213 867.541678,186.285785 866.463273,185.246914 C865.384867,184.208042 864.845673,182.779616 864.845673,180.961591 L864.845673,143.270233 C864.845673,141.582067 865.401207,140.218569 866.512291,139.179698 C867.623375,138.140827 869.126584,137.621399 871.021964,137.621399 C872.721269,137.621399 874.110104,138.124595 875.188509,139.131001 C876.266914,140.137408 876.806109,141.45221 876.806109,143.075446 L876.806109,145.705075 C878.440057,143.042968 880.629514,140.997721 883.374545,139.569273 C886.119577,138.140825 889.224031,137.426612 892.688,137.426612 Z M947.098182,177.747599 C950.366077,177.942388 952,179.403279 952,182.130316 C952,183.688622 951.36277,184.873567 950.088291,185.685185 C948.813812,186.496803 947.000157,186.837678 944.647273,186.707819 L942.000291,186.513032 C931.020163,185.733878 925.530182,179.890315 925.530182,168.982167 L925.530182,147.750343 L920.628364,147.750343 C918.8637,147.750343 917.507544,147.360772 916.559855,146.581619 C915.612165,145.802465 915.138327,144.666217 915.138327,143.17284 C915.138327,141.679462 915.612165,140.543214 916.559855,139.76406 C917.507544,138.984907 918.8637,138.595336 920.628364,138.595336 L925.530182,138.595336 L925.530182,129.635117 C925.530182,127.882021 926.085716,126.486059 927.1968,125.447188 C928.307884,124.408317 929.811094,123.888889 931.706473,123.888889 C933.536494,123.888889 935.007025,124.408317 936.118109,125.447188 C937.229193,126.486059 937.784727,127.882021 937.784727,129.635117 L937.784727,138.595336 L946.117818,138.595336 C947.882482,138.595336 949.238638,138.984907 950.186327,139.76406 C951.134017,140.543214 951.607855,141.679462 951.607855,143.17284 C951.607855,144.666217 951.134017,145.802465 950.186327,146.581619 C949.238638,147.360772 947.882482,147.750343 946.117818,147.750343 L937.784727,147.750343 L937.784727,169.858711 C937.784727,174.66349 940.006863,177.228165 944.4512,177.552812 L947.098182,177.747599 Z" id="environnement" fill="#000000" fill-rule="nonzero"></path>
        <path d="M344.338911,34.2299383 C350.153184,34.2299383 354.604669,35.964746 357.693501,39.4344136 C360.782333,42.9040811 362.326726,48.5102494 362.326726,56.2530864 L362.326726,83.2067901 C362.326726,85.3251135 361.6908,86.9503544 360.418928,88.0825617 C359.147056,89.214769 357.493647,89.7808642 355.458652,89.7808642 C353.496335,89.7808642 351.879264,89.214769 350.607392,88.0825617 C349.33552,86.9503544 348.699594,85.3251135 348.699594,83.2067901 L348.699594,56.2530864 C348.699594,52.2355766 347.99099,49.3685785 346.573761,47.6520062 C345.156532,45.9354338 342.994382,45.0771605 340.087246,45.0771605 C336.526004,45.0771605 333.691589,46.3006565 331.583916,48.7476852 C329.476242,51.1947139 328.422421,54.5365015 328.422421,58.7731481 L328.422421,83.2067901 C328.422421,85.3251135 327.786494,86.9503544 326.514622,88.0825617 C325.24275,89.214769 323.62568,89.7808642 321.663363,89.7808642 C319.701046,89.7808642 318.065807,89.214769 316.757595,88.0825617 C315.449384,86.9503544 314.795288,85.3251135 314.795288,83.2067901 L314.795288,56.2530864 C314.795288,52.2355766 314.086685,49.3685785 312.669456,47.6520062 C311.252227,45.9354338 309.090077,45.0771605 306.182941,45.0771605 C302.621699,45.0771605 299.805453,46.3006565 297.734119,48.7476852 C295.662784,51.1947139 294.627132,54.5365015 294.627132,58.7731481 L294.627132,83.2067901 C294.627132,85.3251135 293.973037,86.9503544 292.664825,88.0825617 C291.356614,89.214769 289.721375,89.7808642 287.759058,89.7808642 C285.796741,89.7808642 284.179671,89.214769 282.907799,88.0825617 C281.635926,86.9503544 281,85.3251135 281,83.2067901 L281,40.8040123 C281,38.7587346 281.654096,37.1882771 282.962307,36.0925926 C284.270518,34.9969081 285.905758,34.4490741 287.868075,34.4490741 C289.757713,34.4490741 291.302106,34.978647 292.5013,36.0378086 C293.700493,37.0969703 294.300081,38.6126445 294.300081,40.5848765 L294.300081,43.2145062 C295.971685,40.2926809 298.206512,38.0648225 301.00463,36.5308642 C303.802749,34.9969059 307.01872,34.2299383 310.65264,34.2299383 C318.647264,34.2299383 323.989047,37.589987 326.678148,44.3101852 C328.277073,41.2422686 330.639085,38.7952766 333.764257,36.9691358 C336.889428,35.142995 340.414278,34.2299383 344.338911,34.2299383 Z M418.361495,74.441358 C419.597028,74.441358 420.596341,74.9161475 421.359464,75.8657407 C422.122587,76.815334 422.504143,78.0936134 422.504143,79.7006173 C422.504143,81.9650319 421.159613,83.8641899 418.470512,85.3981481 C415.999446,86.7860152 413.20137,87.8999444 410.076198,88.7399691 C406.951027,89.5799939 403.971257,90 401.136799,90 C392.560748,90 385.765419,87.5164857 380.750609,82.5493827 C375.735799,77.5822797 373.228432,70.7891377 373.228432,62.1697531 C373.228432,56.6913306 374.318592,51.8338689 376.498944,47.5972222 C378.679296,43.3605755 381.749912,40.0735714 385.710885,37.7361111 C389.671858,35.3986509 394.159682,34.2299383 399.174492,34.2299383 C403.971267,34.2299383 408.150212,35.2890841 411.711454,37.4074074 C415.272696,39.5257308 418.034434,42.5205568 419.996751,46.3919753 C421.959067,50.2633938 422.940211,54.8286774 422.940211,60.087963 C422.940211,63.2289252 421.559342,64.7993827 418.797563,64.7993827 L386.63753,64.7993827 C387.073601,69.8395314 388.490808,73.5465416 390.889196,75.9205247 C393.287583,78.2945078 396.776094,79.4814815 401.354833,79.4814815 C403.680542,79.4814815 405.733676,79.1893033 407.514297,78.6049383 C409.294918,78.0205732 411.311714,77.2170833 413.564744,76.1944444 C415.745096,75.0257143 417.343997,74.441358 418.361495,74.441358 Z M399.501543,43.8719136 C395.794945,43.8719136 392.833344,45.0406262 390.616653,47.3780864 C388.399962,49.7155467 387.073601,53.0755954 386.63753,57.4583333 L411.275386,57.4583333 C411.130029,53.0025497 410.039869,49.6242399 408.004874,47.3233025 C405.969879,45.022365 403.135464,43.8719136 399.501543,43.8719136 Z M476.140536,34.4490741 C478.24821,34.4490741 479.919788,35.0334304 481.155321,36.2021605 C482.390854,37.3708906 483.008611,38.9413482 483.008611,40.9135802 L483.008611,83.4259259 C483.008611,85.3251124 482.372684,86.8590477 481.100812,88.0277778 C479.82894,89.1965079 478.175531,89.7808642 476.140536,89.7808642 C474.178219,89.7808642 472.615657,89.2330247 471.452803,88.1373457 C470.289948,87.0416612 469.70853,85.5442482 469.70853,83.6450617 L469.70853,80.9058642 C468.036926,83.8276895 465.78393,86.073809 462.949472,87.6442901 C460.115014,89.2147712 456.917212,90 453.355971,90 C440.273858,90 433.7329,82.6225018 433.7329,67.867284 L433.7329,40.9135802 C433.7329,38.9413482 434.350657,37.3708906 435.58619,36.2021605 C436.821723,35.0334304 438.456962,34.4490741 440.491958,34.4490741 C442.599631,34.4490741 444.27121,35.0334304 445.506742,36.2021605 C446.742275,37.3708906 447.360032,38.9413482 447.360032,40.9135802 L447.360032,67.9768519 C447.360032,71.7752248 448.123144,74.5874394 449.649391,76.4135802 C451.175637,78.2397211 453.573989,79.1527778 456.844517,79.1527778 C460.623794,79.1527778 463.658071,77.8927595 465.947441,75.3726852 C468.236811,72.8526109 469.381478,69.5108233 469.381478,65.3472222 L469.381478,40.9135802 C469.381478,38.9413482 469.999236,37.3708906 471.234768,36.2021605 C472.470301,35.0334304 474.105541,34.4490741 476.140536,34.4490741 Z M516.476848,90 C508.554902,90 502.159299,88.4295425 497.289846,85.2885802 C494.964137,83.9007132 493.8013,81.9285107 493.8013,79.3719136 C493.8013,77.9110009 494.201025,76.7240272 495.000487,75.8109568 C495.79995,74.8978864 496.781094,74.441358 497.943948,74.441358 C499.179481,74.441358 500.887398,75.0257143 503.06775,76.1944444 C505.393459,77.2901289 507.51927,78.1301411 509.445248,78.7145062 C511.371225,79.2988712 513.824085,79.5910494 516.803899,79.5910494 C519.856392,79.5910494 522.236574,79.0797376 523.944517,78.0570988 C525.652459,77.0344599 526.506418,75.6100914 526.506418,73.7839506 C526.506418,72.5421749 526.1612,71.5560736 525.470755,70.8256173 C524.780311,70.095161 523.544796,69.419499 521.764175,68.7986111 C519.983555,68.1777232 517.276325,67.465539 513.642405,66.662037 C507.174027,65.3472156 502.540848,63.48458 499.742729,61.0740741 C496.944611,58.6635682 495.545573,55.3400418 495.545573,51.1033951 C495.545573,47.8893872 496.490378,44.9858669 498.380016,42.3927469 C500.269655,39.799627 502.867869,37.7909022 506.174736,36.3665123 C509.481603,34.9421225 513.242654,34.2299383 517.458002,34.2299383 C520.510495,34.2299383 523.453926,34.6134221 526.288383,35.3804012 C529.122841,36.1473804 531.666547,37.2613096 533.919578,38.7222222 C536.245286,40.1831349 537.408123,42.1188151 537.408123,44.529321 C537.408123,45.9902336 537.008398,47.2137296 536.208936,48.1998457 C535.409473,49.1859617 534.42833,49.6790123 533.265475,49.6790123 C532.466013,49.6790123 531.684732,49.5146621 530.921608,49.1859568 C530.158485,48.8572514 529.195511,48.3642008 528.032656,47.7067901 C525.924983,46.6111056 524.10805,45.7893546 522.581803,45.2415123 C521.055557,44.6936701 519.165947,44.4197531 516.912916,44.4197531 C514.223815,44.4197531 512.098004,44.9675871 510.535418,46.0632716 C508.972833,47.1589561 508.191552,48.6563691 508.191552,50.5555556 C508.191552,52.3816964 508.991002,53.7695426 510.589927,54.7191358 C512.188852,55.668729 515.277638,56.618308 519.856377,57.5679012 C524.72583,58.5905401 528.541389,59.7592527 531.303168,61.0740741 C534.064947,62.3888955 536.045404,64.0323975 537.244598,66.0046296 C538.443792,67.9768617 539.043379,70.4968982 539.043379,73.5648148 C539.043379,78.5319178 536.990245,82.5128451 532.883916,85.507716 C528.777586,88.502587 523.308618,90 516.476848,90 Z M592.243704,74.441358 C593.479237,74.441358 594.47855,74.9161475 595.241673,75.8657407 C596.004797,76.815334 596.386353,78.0936134 596.386353,79.7006173 C596.386353,81.9650319 595.041822,83.8641899 592.352721,85.3981481 C589.881656,86.7860152 587.083579,87.8999444 583.958408,88.7399691 C580.833236,89.5799939 577.853467,90 575.019009,90 C566.442957,90 559.647629,87.5164857 554.632819,82.5493827 C549.618009,77.5822797 547.110642,70.7891377 547.110642,62.1697531 C547.110642,56.6913306 548.200801,51.8338689 550.381154,47.5972222 C552.561506,43.3605755 555.632122,40.0735714 559.593095,37.7361111 C563.554068,35.3986509 568.041892,34.2299383 573.056702,34.2299383 C577.853476,34.2299383 582.032422,35.2890841 585.593664,37.4074074 C589.154905,39.5257308 591.916643,42.5205568 593.87896,46.3919753 C595.841277,50.2633938 596.822421,54.8286774 596.822421,60.087963 C596.822421,63.2289252 595.441552,64.7993827 592.679773,64.7993827 L560.51974,64.7993827 C560.95581,69.8395314 562.373018,73.5465416 564.771405,75.9205247 C567.169793,78.2945078 570.658304,79.4814815 575.237043,79.4814815 C577.562752,79.4814815 579.615886,79.1893033 581.396507,78.6049383 C583.177128,78.0205732 585.193923,77.2170833 587.446954,76.1944444 C589.627306,75.0257143 591.226207,74.441358 592.243704,74.441358 Z M573.383753,43.8719136 C569.677154,43.8719136 566.715554,45.0406262 564.498863,47.3780864 C562.282171,49.7155467 560.95581,53.0755954 560.51974,57.4583333 L585.157595,57.4583333 C585.012239,53.0025497 583.922079,49.6242399 581.887084,47.3233025 C579.852088,45.022365 577.017673,43.8719136 573.383753,43.8719136 Z M668.446629,34.2299383 C674.842328,34.2299383 679.602692,36.0560517 682.727864,39.7083333 C685.853035,43.360615 687.415597,48.8754775 687.415597,56.2530864 L687.415597,83.2067901 C687.415597,85.2520678 686.816009,86.8590477 685.616816,88.0277778 C684.417622,89.1965079 682.764213,89.7808642 680.656539,89.7808642 C678.548866,89.7808642 676.877288,89.1965079 675.641755,88.0277778 C674.406222,86.8590477 673.788465,85.2520678 673.788465,83.2067901 L673.788465,57.0200617 C673.788465,52.8564607 673.007184,49.8251124 671.444598,47.9259259 C669.882012,46.0267395 667.429153,45.0771605 664.085946,45.0771605 C660.161313,45.0771605 657.018019,46.3189176 654.655971,48.8024691 C652.293923,51.2860206 651.112916,54.6095471 651.112916,58.7731481 L651.112916,83.2067901 C651.112916,85.2520678 650.495159,86.8590477 649.259626,88.0277778 C648.024093,89.1965079 646.352515,89.7808642 644.244842,89.7808642 C642.137168,89.7808642 640.483759,89.1965079 639.284565,88.0277778 C638.085372,86.8590477 637.485784,85.2520678 637.485784,83.2067901 L637.485784,40.8040123 C637.485784,38.9048259 638.103541,37.3708906 639.339074,36.2021605 C640.574607,35.0334304 642.246185,34.4490741 644.353859,34.4490741 C646.243497,34.4490741 647.78789,35.0151692 648.987084,36.1473765 C650.186277,37.2795839 650.785865,38.7587357 650.785865,40.5848765 L650.785865,43.5432099 C652.602825,40.5483389 655.037515,38.247436 658.090008,36.6404321 C661.142501,35.0334282 664.594673,34.2299383 668.446629,34.2299383 Z M724.37238,34.2299383 C731.785577,34.2299383 737.290884,36.0743128 740.888465,39.7631173 C744.486046,43.4519217 746.284809,49.05809 746.284809,56.5817901 L746.284809,83.316358 C746.284809,85.2885901 745.703391,86.8407865 744.540536,87.9729938 C743.377682,89.1052011 741.778781,89.6712963 739.743786,89.6712963 C737.854147,89.6712963 736.309754,89.08694 735.110561,87.9182099 C733.911367,86.7494798 733.311779,85.2155445 733.311779,83.316358 L733.311779,80.9058642 C732.076246,83.7546439 730.132128,85.9825023 727.479366,87.5895062 C724.826605,89.1965101 721.755988,90 718.267425,90 C714.706183,90 711.472043,89.2695546 708.564907,87.808642 C705.65777,86.3477293 703.368435,84.3390046 701.696832,81.7824074 C700.025229,79.2258103 699.189439,76.3770733 699.189439,73.2361111 C699.189439,69.2916469 700.188753,66.1872541 702.187409,63.9228395 C704.186065,61.6584249 707.438374,60.0149228 711.944435,58.992284 C716.450496,57.9696451 722.664407,57.4583333 730.586353,57.4583333 L733.311779,57.4583333 L733.311779,54.9382716 C733.311779,51.3590356 732.548667,48.7476934 731.022421,47.1041667 C729.496174,45.4606399 727.025146,44.6388889 723.609261,44.6388889 C721.501587,44.6388889 719.357606,44.9493282 717.177254,45.570216 C714.996902,46.1911039 712.416858,47.0858995 709.437043,48.2546296 C707.547405,49.2042229 706.166536,49.6790123 705.294395,49.6790123 C703.986184,49.6790123 702.914193,49.2042229 702.078392,48.2546296 C701.24259,47.3050364 700.824695,46.0632793 700.824695,44.529321 C700.824695,43.2875452 701.133574,42.2101383 701.75134,41.2970679 C702.369107,40.3839975 703.404759,39.5257242 704.858327,38.7222222 C707.402071,37.3343552 710.436348,36.2386871 713.961251,35.4351852 C717.486154,34.6316832 720.956495,34.2299383 724.37238,34.2299383 Z M720.992851,80.1388889 C724.626771,80.1388889 727.588372,78.9153929 729.877742,76.4683642 C732.167111,74.0213355 733.311779,70.8621593 733.311779,66.9907407 L733.311779,64.6898148 L731.349472,64.6898148 C726.480019,64.6898148 722.700799,64.9089484 720.011698,65.3472222 C717.322597,65.785496 715.396648,66.5524637 714.233794,67.6481481 C713.070939,68.7438326 712.489521,70.2412456 712.489521,72.1404321 C712.489521,74.4778923 713.30714,76.3953114 714.942405,77.8927469 C716.577669,79.3901824 718.594464,80.1388889 720.992851,80.1388889 Z M787.820309,79.5910494 C791.454229,79.8101863 793.271162,81.4536884 793.271162,84.5216049 C793.271162,86.2747001 792.562558,87.6077629 791.145329,88.5208333 C789.7281,89.4339037 787.711305,89.8173876 785.094882,89.6712963 L782.151422,89.4521605 C769.94145,88.5756129 763.836556,82.0016046 763.836556,69.7299383 L763.836556,45.8441358 L758.385703,45.8441358 C756.423386,45.8441358 754.915332,45.4058686 753.861495,44.529321 C752.807658,43.6527734 752.280747,42.374494 752.280747,40.6944444 C752.280747,39.0143949 752.807658,37.7361155 753.861495,36.8595679 C754.915332,35.9830203 756.423386,35.5447531 758.385703,35.5447531 L763.836556,35.5447531 L763.836556,25.4645062 C763.836556,23.4922741 764.454313,21.9218165 765.689846,20.7530864 C766.925379,19.5843563 768.596957,19 770.70463,19 C772.739626,19 774.374865,19.5843563 775.610398,20.7530864 C776.845931,21.9218165 777.463688,23.4922741 777.463688,25.4645062 L777.463688,35.5447531 L786.730138,35.5447531 C788.692455,35.5447531 790.200509,35.9830203 791.254346,36.8595679 C792.308183,37.7361155 792.835093,39.0143949 792.835093,40.6944444 C792.835093,42.374494 792.308183,43.6527734 791.254346,44.529321 C790.200509,45.4058686 788.692455,45.8441358 786.730138,45.8441358 L777.463688,45.8441358 L777.463688,70.7160494 C777.463688,76.1214262 779.934717,79.0066854 784.876848,79.3719136 L787.820309,79.5910494 Z M842.437855,34.4490741 C844.545529,34.4490741 846.217107,35.0334304 847.45264,36.2021605 C848.688173,37.3708906 849.30593,38.9413482 849.30593,40.9135802 L849.30593,83.4259259 C849.30593,85.3251124 848.670004,86.8590477 847.398132,88.0277778 C846.12626,89.1965079 844.472851,89.7808642 842.437855,89.7808642 C840.475539,89.7808642 838.912976,89.2330247 837.750122,88.1373457 C836.587267,87.0416612 836.005849,85.5442482 836.005849,83.6450617 L836.005849,80.9058642 C834.334246,83.8276895 832.081249,86.073809 829.246791,87.6442901 C826.412334,89.2147712 823.214532,90 819.65329,90 C806.571177,90 800.030219,82.6225018 800.030219,67.867284 L800.030219,40.9135802 C800.030219,38.9413482 800.647976,37.3708906 801.883509,36.2021605 C803.119042,35.0334304 804.754282,34.4490741 806.789277,34.4490741 C808.896951,34.4490741 810.568529,35.0334304 811.804062,36.2021605 C813.039595,37.3708906 813.657352,38.9413482 813.657352,40.9135802 L813.657352,67.9768519 C813.657352,71.7752248 814.420464,74.5874394 815.94671,76.4135802 C817.472956,78.2397211 819.871308,79.1527778 823.141836,79.1527778 C826.921113,79.1527778 829.955391,77.8927595 832.24476,75.3726852 C834.53413,72.8526109 835.678798,69.5108233 835.678798,65.3472222 L835.678798,40.9135802 C835.678798,38.9413482 836.296555,37.3708906 837.532088,36.2021605 C838.767621,35.0334304 840.40286,34.4490741 842.437855,34.4490741 Z M893.239805,34.4490741 C895.129444,34.3029828 896.619328,34.7047278 897.709504,35.654321 C898.799681,36.6039142 899.34476,38.0282827 899.34476,39.9274691 C899.34476,41.8997012 898.872358,43.360592 897.927539,44.3101852 C896.982719,45.2597784 895.274802,45.880657 892.803737,46.1728395 L889.533225,46.5015432 C885.245199,46.939817 882.101905,48.4007077 880.103249,50.8842593 C878.104593,53.3678108 877.10528,56.4722036 877.10528,60.1975309 L877.10528,83.2067901 C877.10528,85.3251135 876.451184,86.9503544 875.142973,88.0825617 C873.834762,89.214769 872.199522,89.7808642 870.237206,89.7808642 C868.274889,89.7808642 866.657818,89.214769 865.385946,88.0825617 C864.114074,86.9503544 863.478148,85.3251135 863.478148,83.2067901 L863.478148,40.8040123 C863.478148,38.7587346 864.114074,37.1882771 865.385946,36.0925926 C866.657818,34.9969081 868.23855,34.4490741 870.128188,34.4490741 C872.017827,34.4490741 873.544051,34.978647 874.706905,36.0378086 C875.869759,37.0969703 876.451178,38.6126445 876.451178,40.5848765 L876.451178,44.9675926 C877.832068,41.7535848 879.885202,39.2700705 882.610642,37.5169753 C885.336082,35.7638801 888.37036,34.7777789 891.713566,34.558642 L893.239805,34.4490741 Z M947.421284,74.441358 C948.656816,74.441358 949.656129,74.9161475 950.419253,75.8657407 C951.182376,76.815334 951.563932,78.0936134 951.563932,79.7006173 C951.563932,81.9650319 950.219401,83.8641899 947.530301,85.3981481 C945.059235,86.7860152 942.261158,87.8999444 939.135987,88.7399691 C936.010816,89.5799939 933.031046,90 930.196588,90 C921.620537,90 914.825208,87.5164857 909.810398,82.5493827 C904.795588,77.5822797 902.288221,70.7891377 902.288221,62.1697531 C902.288221,56.6913306 903.378381,51.8338689 905.558733,47.5972222 C907.739085,43.3605755 910.809701,40.0735714 914.770674,37.7361111 C918.731647,35.3986509 923.219471,34.2299383 928.234281,34.2299383 C933.031056,34.2299383 937.210001,35.2890841 940.771243,37.4074074 C944.332485,39.5257308 947.094223,42.5205568 949.056539,46.3919753 C951.018856,50.2633938 952,54.8286774 952,60.087963 C952,63.2289252 950.619131,64.7993827 947.857352,64.7993827 L915.697319,64.7993827 C916.13339,69.8395314 917.550597,73.5465416 919.948985,75.9205247 C922.347372,78.2945078 925.835883,79.4814815 930.414622,79.4814815 C932.740331,79.4814815 934.793465,79.1893033 936.574086,78.6049383 C938.354707,78.0205732 940.371502,77.2170833 942.624533,76.1944444 C944.804885,75.0257143 946.403786,74.441358 947.421284,74.441358 Z M928.561332,43.8719136 C924.854734,43.8719136 921.893133,45.0406262 919.676442,47.3780864 C917.459751,49.7155467 916.13339,53.0755954 915.697319,57.4583333 L940.335175,57.4583333 C940.189818,53.0025497 939.099658,49.6242399 937.064663,47.3233025 C935.029668,45.022365 932.195252,43.8719136 928.561332,43.8719136 Z" id="meusenature" fill="#000000" fill-rule="nonzero"></path>
        <g id="Salamandre" transform="translate(-26.000000, -49.000000)">
            <path d="M167.437923,128.685052 C169.161471,118.916077 186.643031,126.506425 186.643031,123.233939 C186.643031,116.065782 165.241543,106.339228 152.234091,104.325235 C144.131888,103.072802 119.554801,103.909104 120.240153,108.015871 C120.726203,110.914647 125.266406,109.393547 125.186075,115.060806 C125.112863,120.344254 108.584085,125.977171 110.994002,133.158459 C112.452154,137.507633 124.727479,122.145131 129.247345,126.631668 C131.197649,128.565869 119.235512,132.390839 120.726203,134.609867 C121.219372,135.334056 127.789193,134.609867 129.493421,135.09266 C131.197649,135.576462 135.332132,139.206497 133.627903,141.62046 C131.923675,144.040484 129.979472,138.479278 126.817091,137.996486 C123.648609,137.507633 119.268051,138.234852 121.704406,140.173092 C124.13466,142.103253 130.219447,150.328908 126.324939,152.741861 C122.430432,155.161884 121.45833,143.557691 118.05089,145.250495 C114.642434,146.943299 115.767062,156.973872 111.233977,153.47009 C109.043698,151.777286 114.402459,150.321838 110.507951,145.488861 C107.985164,142.36788 101.740733,150.321838 100.036505,147.908885 C98.3332936,145.488861 104.424181,142.830472 103.444962,140.173092 C102.47286,137.507633 95.4169888,137.752059 97.8472428,132.917063 C100.283598,128.080046 106.12841,125.18026 106.12841,123.24707 C106.12841,121.312869 103.931013,117.688894 98.0933187,121.071473 C92.2485069,124.454051 82.2692128,139.213567 84.9455427,158.79899 C87.6289906,178.386432 93.4666845,193.376234 120.001195,217.31285 C138.34707,233.863143 170.386767,240.521237 168.435446,248.258039 C166.492259,255.993831 131.197649,245.838016 114.888509,236.653846 C98.5793695,227.461595 87.3890157,217.795642 71.8048846,194.103453 C56.2299051,170.402173 61.8266073,128.334573 61.0954974,123.984389 C60.3704885,119.633195 54.1321586,128.552739 52.0954227,129.303188 C49.6529666,130.200092 49.2126737,135.675445 47.0498493,137.77226 C45.4188336,139.345881 43.9210243,137.725798 43.0882301,138.975201 C42.1568022,140.357927 43.4349735,143.287004 42.4028782,145.43533 C41.2579133,147.809902 37.717267,149.124957 33.5960036,148.160381 C28.2707984,146.917039 19.437486,132.232265 33.8491974,116.346569 C35.8259396,114.167942 35.3337878,121.3361 37.4905111,121.081573 C40.3996981,120.737154 35.8066196,113.047823 43.8874685,110.068245 C46.3970363,109.143061 44.0613486,115.040605 47.7087633,114.313386 C51.363296,113.586167 56.8888192,83.0177177 77.4036205,81.6622623 C81.0581531,81.420866 84.9526606,81.9036586 87.8750665,81.1794696 C90.7903545,80.4552807 97.6072679,70.5267211 115.134585,61.0981245 C132.655802,51.6695279 146.529604,49.2515247 164.055904,49.0111384 C181.577121,48.7697421 196.668083,52.4028071 214.1954,64.7311895 C231.716617,77.0595719 240.483835,92.0635143 241.694894,93.9977149 C242.914089,95.9319154 246.08257,98.8306913 248.997858,105.843305 C251.920264,112.855918 260.973215,132.4373 262.630668,140.668005 C265.060922,152.756001 272.191023,167.98215 273.342089,186.367661 C273.82814,194.110523 268.95543,209.827544 268.95543,209.827544 C273.096013,210.07298 275.772343,215.627116 274.800242,216.598761 C273.82814,217.564346 270.905734,213.450509 268.229404,214.423164 C265.546973,215.387739 262.87166,224.096187 260.92644,226.754577 C258.976136,229.412966 259.708263,218.535992 258.004034,217.808773 C256.300823,217.081554 253.850232,222.470045 252.64629,222.641749 C250.396017,222.953847 255.814772,214.178738 252.892366,212.003141 C250.715306,210.383059 248.7589,216.598761 247.539706,213.695945 C246.321529,210.792119 259.708263,194.599376 259.708263,181.785171 C259.708263,168.966925 257.511882,169.205292 256.05373,169.449718 C254.596594,169.688084 253.378417,191.213767 251.674188,195.082168 C245.123688,209.946727 243.59334,221.868069 234.877981,231.344137 C229.766313,236.904332 224.413653,236.911402 222.22439,237.876988 C220.034111,238.842573 208.590564,243.438193 203.23892,241.982745 C197.879143,240.535377 199.337295,230.615908 194.471703,222.397323 C189.605094,214.178738 189.605094,211.281982 189.605094,206.204579 C189.605094,201.126166 191.682503,196.649729 195.935956,189.759329 C200.562591,182.267963 207.372386,171.628345 207.372386,167.029695 C207.372386,162.441145 206.814139,158.997965 199.829447,151.313684 C193.01355,143.822318 188.25371,141.481077 186.196637,141.885087 C182.548205,142.612306 188.872967,146.96956 186.196637,150.104682 C183.520307,153.251924 182.868511,142.784011 180.844994,143.577891 C179.625799,144.060684 178.408639,153.733707 169.894615,154.699292 C166.898996,155.036641 173.849116,148.649234 174.02808,142.612306 C174.275173,134.630067 166.192291,135.735036 167.437923,128.685052" id="Fond" fill="#000000"></path>
            <path d="M35.4161055,123.001988 C37.5166605,123.142011 33.28695,138.076377 33.1206429,139.90309 C32.9543357,141.722321 30,141.56092 30,137.250134 C30,132.93828 32.9543357,122.837381 35.4161055,123.001988 Z M47.7508824,128.33638 C48.659723,129.12792 47.0048478,133.003066 44.0398632,136.013832 C41.0672172,139.022655 38.001676,141.286556 36.7662657,139.175135 C34.3902558,135.111573 37.9518765,134.058777 41.8132518,131.197578 C45.6698386,128.33638 46.7108394,127.433151 47.7508824,128.33638 Z M84.0032894,84.0125722 C89.3309249,84.1772557 71.7486872,108.40041 67.8788676,110.676608 C63.689598,113.142665 74.1669343,100.757839 72.5519948,98.8068117 C70.9443392,96.8578825 65.3451191,100.706441 64.3295386,97.9970305 C62.0684152,91.9813638 71.7486872,83.6318073 84.0032894,84.0125722 Z M117.571255,75.0937307 C125.12442,85.0958976 100.855134,89.5875552 88.6398994,103.348131 C72.1910568,121.873813 72.1971777,136 69.1928462,136 C66.1864744,136 68.2369689,115.906542 82.6291961,97.8558512 C97.0153024,79.8041477 114.252718,70.6982867 117.571255,75.0937307 Z M140.804977,92.1985091 C165.570039,90.3443773 178.582865,102.023121 176.845986,104.602693 C175.104007,107.181225 159.599581,98.883361 139.062998,100.091041 C111.720664,101.700935 97.3320015,118.777863 95.2748756,117.972396 C93.2259089,117.165891 102.072468,95.100267 140.804977,92.1985091 Z M128.20232,67.7740615 C134.589978,60.0026057 163.451239,53.1730205 189.133594,62.5323472 C214.815949,71.8926976 241.346286,98.0715801 235.066685,102.997973 C226.774154,109.50507 218.319023,82.5286684 184.989386,73.6453959 C151.418938,64.6976257 125.434027,71.1484151 128.20232,67.7740615 Z M186.168071,105.375915 C192.135259,103.665736 198.882827,107.761543 208.577584,118.261796 C218.277469,128.762049 226.534523,144.832189 221.453338,147.540143 C216.363949,150.241939 213.503924,140.699427 202.856508,127.808414 C190.571423,112.943406 181.716522,106.649824 186.168071,105.375915 Z M240.176809,117.005487 C246.119169,117.316639 252.530503,128.278688 253.778076,139.397323 C255.0317,150.514948 250.655614,155.838881 248.621375,155.997488 C246.587135,156.156095 245.491853,148.788458 243.30734,138.300209 C241.114758,127.81196 234.657031,116.71757 240.176809,117.005487 Z M260.319902,145.041832 C261.534168,144.215197 264.831884,155.851764 261.661418,161.177401 C258.484482,166.502027 256.810822,166.653611 256.141142,165.244894 C255.477932,163.835167 257.312273,158.670208 258.315175,155.071614 C259.316999,151.465945 258.484482,146.298966 260.319902,145.041832 Z M248.946306,167.504492 C250.350747,168.918685 251.629342,179.619916 243.799708,202.550112 C236.930531,222.65902 222.259909,233.031793 216.644158,230.668723 C213.243296,229.242365 224.045915,222.247434 231.783933,203.173574 C239.429329,184.318685 240.674701,173.321437 243.014429,167.81673 C243.495664,166.694499 248.314055,166.867852 248.946306,167.504492 Z M225.593033,159.894086 C226.38034,162.258245 226.162037,175.319156 223.714207,181.511583 C221.259303,187.70401 210.871694,197.928337 206.63701,209.920183 C202.409401,221.911011 203.506982,232.80223 201.628157,230.749626 C199.749332,228.703132 194.42313,216.705177 196.454566,203.921205 C198.493076,191.143342 210.71302,181.671433 214.159386,176.305749 C217.607773,170.93701 221.048075,162.891539 221.518034,161.151509 C221.987992,159.420643 224.971474,158.014569 225.593033,159.894086 Z M69.6796955,149.405151 C70.1047973,145.729676 70.1257382,145.475031 72.1402596,146.56622 C74.1558281,147.664567 72.5925846,149.846945 76.6163921,153.997961 C80.647529,158.156136 81.7647298,155.530943 81.9908923,160.771103 C82.2170548,166.020467 78.1869649,169.735826 74.8280332,176.736 C70.8523899,185.024738 66.1019307,182.419998 68.7823749,176.515103 C70.3927356,172.979734 71.2492213,166.890758 69.2346999,162.518845 C67.2191315,158.148978 69.0964895,154.479638 69.6796955,149.405151 Z M84.5539881,198.27189 C86.6595024,197.152997 99.902312,199.609765 101.582986,203.398152 C103.262677,207.187581 99.4774722,217.215908 97.1664219,215.878033 C94.8553717,214.546415 81.097247,200.10821 84.5539881,198.27189 Z M107.192092,223.411364 C108.016716,221.737753 117.780102,225.436318 127.042934,229.712389 C136.31299,233.9832 146.015484,245 144.914265,245 C143.812014,245 134.765917,240.724981 127.488788,237.80484 C113.536229,232.199137 105.645019,226.558721 107.192092,223.411364 Z" id="Combined-Shape" fill="#F7D000"></path>
        </g>
    </g>
</svg>