<svg height="512" viewBox="0 0 512 512" width="512" xmlns="http://www.w3.org/2000/svg" xmlns:xlink="http://www.w3.org/1999/xlink"><linearGradient id="New_Gradient_Swatch_4" gradientUnits="userSpaceOnUse" x1="111.902" x2="394.186" y1="382.098" y2="99.814"><stop offset=".011" stop-color="#cacad5"/><stop offset="1" stop-color="#ededf1"/></linearGradient><linearGradient id="New_Gradient_Swatch_3" gradientUnits="userSpaceOnUse" x1="371.248" x2="444.752" y1="324.752" y2="251.248"><stop offset=".011" stop-color="#606082"/><stop offset="1" stop-color="#83839e"/></linearGradient><linearGradient id="New_Gradient_Swatch_3-2" x1="83.248" x2="156.752" xlink:href="#New_Gradient_Swatch_3" y1="324.752" y2="251.248"/><linearGradient id="New_Gradient_Swatch_22" gradientUnits="userSpaceOnUse" x1="103.029" x2="136.971" y1="304.971" y2="271.029"><stop offset=".011" stop-color="#dcdce3"/><stop offset="1" stop-color="#ededf1"/></linearGradient><linearGradient id="New_Gradient_Swatch_22-2" x1="391.029" x2="424.971" xlink:href="#New_Gradient_Swatch_22" y1="304.971" y2="271.029"/><linearGradient id="New_Gradient_Swatch_3-3" x1="96.907" x2="211.689" xlink:href="#New_Gradient_Swatch_3" y1="198.674" y2="83.892"/><linearGradient id="New_Gradient_Swatch_3-4" x1="172.825" x2="346.275" xlink:href="#New_Gradient_Swatch_3" y1="275.69" y2="102.24"/><g id="_13-car" data-name="13-car"><g id="gradient"><path d="m477.4 193.04-93.4-17.04-79.515-65.975a44.109 44.109 0 0 0 -27.959-10.025h-117.146a43.785 43.785 0 0 0 -34.359 16.514l-50.789 59.486h-34.232a36.04 36.04 0 0 0 -36 36v44a44.049 44.049 0 0 0 44 44h424a36.04 36.04 0 0 0 36-36v-35.368a35.791 35.791 0 0 0 -30.6-35.592z" fill="url(#New_Gradient_Swatch_4)"/><circle cx="408" cy="288" fill="url(#New_Gradient_Swatch_3)" r="52"/><circle cx="120" cy="288" fill="url(#New_Gradient_Swatch_3-2)" r="52"/><path d="m240 220h-16a12 12 0 0 1 0-24h16a12 12 0 0 1 0 24z" fill="#b8b8c7"/><circle cx="120" cy="288" fill="url(#New_Gradient_Swatch_22)" r="24"/><circle cx="408" cy="288" fill="url(#New_Gradient_Swatch_22-2)" r="24"/><path d="m180 164v-31a12 12 0 0 0 -12-12h-46.809l-46.959 55h93.768a12 12 0 0 0 12-12z" fill="url(#New_Gradient_Swatch_3-3)"/><path d="m221 175.93 163 .07-66.288-55h-96.712a12 12 0 0 0 -12 12v30.93a12 12 0 0 0 12 12z" fill="url(#New_Gradient_Swatch_3-4)"/></g></g></svg>